<svg xmlns="http://www.w3.org/2000/svg" xmlns:xlink="http://www.w3.org/1999/xlink" width="299.999" height="75.364" viewBox="0 0 299.999 75.364">
  <defs>
    <linearGradient id="linear-gradient" x1="0.011" y1="0.5" x2="0.619" y2="0.5" gradientUnits="objectBoundingBox">
      <stop offset="0" stop-color="#fcc66c"/>
      <stop offset="1" stop-color="#f75f96"/>
    </linearGradient>
    <linearGradient id="linear-gradient-4" x1="0.07" y1="1" x2="0.83" y2="0.076" gradientUnits="objectBoundingBox">
      <stop offset="0" stop-color="#f75e96"/>
      <stop offset="1" stop-color="#fcc66c"/>
    </linearGradient>
    <linearGradient id="linear-gradient-5" x1="0" y1="0.5" x2="1" y2="0.5" xlink:href="#linear-gradient-4"/>
    <linearGradient id="linear-gradient-6" x1="0.5" x2="0.5" y2="1" gradientUnits="objectBoundingBox">
      <stop offset="0" stop-color="#bc51ed"/>
      <stop offset="1" stop-color="#7816df"/>
    </linearGradient>
    <linearGradient id="linear-gradient-8" x1="0.5" y1="-0.028" x2="0.5" y2="0.737" xlink:href="#linear-gradient"/>
  </defs>
  <g id="Logo" transform="translate(-225.69 -450.191)">
    <circle id="Ellipse_26" data-name="Ellipse 26" cx="3.456" cy="3.456" r="3.456" transform="translate(288.974 502.335)" fill="url(#linear-gradient)"/>
    <circle id="Ellipse_27" data-name="Ellipse 27" cx="3.456" cy="3.456" r="3.456" transform="translate(260.24 450.191)" fill="url(#linear-gradient)"/>
    <circle id="Ellipse_28" data-name="Ellipse 28" cx="3.456" cy="3.456" r="3.456" transform="translate(230.742 502.337)" fill="url(#linear-gradient)"/>
    <path id="Path_4153" data-name="Path 4153" d="M329.666,559.963a7.747,7.747,0,0,1-1.114-4.7,15.937,15.937,0,0,1,6.386-11.534,7.651,7.651,0,0,1,3.425-1.5.836.836,0,0,1,1.008.449c1.239,2.066,2.517,4.109,3.8,6.144a.926.926,0,0,1,.034,1.078,8.658,8.658,0,0,1-6.111,4.526,12.851,12.851,0,0,0-5.43,2.234A4.737,4.737,0,0,0,329.666,559.963Z" transform="translate(-72.563 -64.925)" fill="url(#linear-gradient-4)"/>
    <path id="Path_4154" data-name="Path 4154" d="M374.892,524.53l3.972,6.409c-1.024.708-2.024,1.4-3.025,2.091-.932.642-1.868,1.278-2.8,1.922a1.127,1.127,0,0,0-.457,1.494c.164.362.207.669-.193.861s-.591-.1-.767-.389q-2.541-4.1-5.082-8.2c-.114-.183-.3-.358-.325-.55a.863.863,0,0,1,.174-.685.723.723,0,0,1,.676.125,1.259,1.259,0,0,0,1.807.269C370.865,526.762,372.86,525.659,374.892,524.53Zm-2.858,7.463a1.98,1.98,0,0,0,2.019-1.769,1.166,1.166,0,0,0-1.281-1.211,2.083,2.083,0,0,0-2.04,1.784A1.191,1.191,0,0,0,372.035,531.993Z" transform="translate(-99.157 -52.456)" fill="#fff"/>
    <g id="Group_153" data-name="Group 153" transform="translate(225.69 450.666)">
      <g id="Group_152" data-name="Group 152" transform="translate(0 0)">
        <path id="Path_4155" data-name="Path 4155" d="M308.388,648.43a31.038,31.038,0,0,1-24.167,10.065,26.62,26.62,0,0,1-6.545-1.015,31.644,31.644,0,0,1-14.852-9.127,6.912,6.912,0,0,1-5.568,4.138,37.71,37.71,0,0,0,56.759.01,6.915,6.915,0,0,1-5.627-4.071Z" transform="translate(-247.965 -590.496)" fill="#f75f96"/>
        <path id="Path_4156" data-name="Path 4156" d="M234.645,500.033a31.207,31.207,0,0,1-1.213-3.942,30.763,30.763,0,0,1,22.861-37.015c.572-.135,1.145-.252,1.719-.354a6.917,6.917,0,0,1-.553-6.917,37.676,37.676,0,0,0-29.025,51.315A6.91,6.91,0,0,1,234.645,500.033Z" transform="translate(-225.69 -451.804)" fill="#f75f96"/>
        <path id="Path_4157" data-name="Path 4157" d="M387.734,457.218a37.574,37.574,0,0,0-13.184-5.045,6.906,6.906,0,0,1-.406,6.505c-.085.137-.174.268-.266.4A30.762,30.762,0,0,1,384.1,463.1q.65.4,1.276.832a3.445,3.445,0,0,0,3.63.192l.064-.036a3.426,3.426,0,0,0,.277-5.815Q388.56,457.728,387.734,457.218Z" transform="translate(-330.257 -452.064)" fill="#f75f96"/>
        <path id="Path_4158" data-name="Path 4158" d="M452.815,528.177a3.423,3.423,0,0,0-1.253,3.967,30.787,30.787,0,0,1-.259,21.3,6.917,6.917,0,0,1,6.165,3.2,37.643,37.643,0,0,0,.584-26.873,3.408,3.408,0,0,0-5.156-1.649Z" transform="translate(-384.891 -505.224)" fill="#f75f96"/>
      </g>
    </g>
    <path id="Path_4159" data-name="Path 4159" d="M415.579,498.467a2.948,2.948,0,0,0-3.77-.78l-4.066,2.259-8.844,4.913,3.977,6.21,8.83-6.093,3.244-2.24a2.952,2.952,0,0,0,.665-4.223Z" transform="translate(-122.222 -33.253)" fill="#fff"/>
    <path id="Path_4160" data-name="Path 4160" d="M354.568,605.857a14.162,14.162,0,0,0-3.048-4.4c-.091-.089-.182-.17-.274-.25a6.2,6.2,0,0,0-2.556-1.343,5.883,5.883,0,0,0-1.532-.2,7.254,7.254,0,0,0-1.492.163,17.91,17.91,0,0,0-4.566,1.9c-1.327.708-2.659,1.365-4,1.958a7.77,7.77,0,0,1-3.126.762,5.148,5.148,0,0,1-1.1-.117,4.167,4.167,0,0,1-2.962-2.632.979.979,0,0,0-.72-.643.52.52,0,0,0-.063,0c-.6,0-.941,1.109-.735,2.506a6.081,6.081,0,0,0,.366,1.378,7.221,7.221,0,0,0,.653,1.172c.1.153.6.784.708.894a4.246,4.246,0,0,0,2.194,1.277,5.142,5.142,0,0,0,1.134.124,8.116,8.116,0,0,0,3.375-.872,42.824,42.824,0,0,0,5.278-3.156,13.427,13.427,0,0,1,4.98-2.276,6.552,6.552,0,0,1,1.051-.088,5.313,5.313,0,0,1,2.362.546,6.253,6.253,0,0,1,1.154.729,16.538,16.538,0,0,1,2.838,3.1c.112.151.232.268.348.4l.041-.136C354.778,606.383,354.68,606.1,354.568,605.857Z" transform="translate(-72.433 -105.472)" fill="url(#linear-gradient-5)"/>
    <path id="Path_4161" data-name="Path 4161" d="M414.128,573.541c.045.1.084.2.123.291a23.693,23.693,0,0,0,2.894-11.135,24.049,24.049,0,0,0-.392-4.578,3.411,3.411,0,0,0-5.283-2.165L411.4,556a3.39,3.39,0,0,0-1.441,3.394,17.1,17.1,0,0,1,.22,4.467,16.82,16.82,0,0,1-.7,3.622,8.908,8.908,0,0,1,1.068.889A16.834,16.834,0,0,1,414.128,573.541Z" transform="translate(-129.687 -74.207)" fill="url(#linear-gradient-6)"/>
    <path id="Path_4162" data-name="Path 4162" d="M313.816,536.844l-.071-.078a5.783,5.783,0,0,1-.406-.483,14.064,14.064,0,0,0-2.38-2.622,3.307,3.307,0,0,0-1.094-.6,16.962,16.962,0,0,1-11.378,6,17.383,17.383,0,0,1-2.318.064,17.028,17.028,0,0,1-16.329-17.96,17.022,17.022,0,0,1,20.241-15.76,3.4,3.4,0,0,0,2.253-.345l.089-.048a3.428,3.428,0,0,0-.948-6.383,23.943,23.943,0,1,0,13.289,39.3Z" transform="translate(-33.314 -33.862)" fill="url(#linear-gradient-6)"/>
    <g id="Group_154" data-name="Group 154" transform="translate(310.577 477.263)">
      <path id="Path_4163" data-name="Path 4163" d="M514.067,564.509V543.475H520a14.407,14.407,0,0,1,4.355.613,8.743,8.743,0,0,1,3.323,1.887,8.3,8.3,0,0,1,2.129,3.242,13.274,13.274,0,0,1,.742,4.678,13.548,13.548,0,0,1-.742,4.71,8.731,8.731,0,0,1-2.1,3.307,8.612,8.612,0,0,1-3.242,1.952,12.942,12.942,0,0,1-4.21.645Zm4.743-3.839h.9a7.928,7.928,0,0,0,2.452-.355,4.516,4.516,0,0,0,1.871-1.145,5.368,5.368,0,0,0,1.21-2.081,10.093,10.093,0,0,0,.435-3.194,9.825,9.825,0,0,0-.435-3.145,5.092,5.092,0,0,0-1.21-2.033,4.407,4.407,0,0,0-1.871-1.081,8.686,8.686,0,0,0-2.452-.323h-.9Z" transform="translate(-514.067 -543.088)" fill="#fff"/>
      <path id="Path_4164" data-name="Path 4164" d="M580.372,564.509V543.475h13.163v4h-8.42V551.7h7.162v3.968h-7.162v4.839h8.743v4Z" transform="translate(-560.854 -543.088)" fill="#fff"/>
      <path id="Path_4165" data-name="Path 4165" d="M640.314,563.968a11.785,11.785,0,0,1-4.113-.758,10.717,10.717,0,0,1-3.662-2.275l2.71-3.258a10.248,10.248,0,0,0,2.5,1.581,6.571,6.571,0,0,0,2.694.613,3.653,3.653,0,0,0,2.21-.548,1.762,1.762,0,0,0,.726-1.484,1.62,1.62,0,0,0-.21-.839,2,2,0,0,0-.613-.629,5.8,5.8,0,0,0-.968-.516l-1.242-.532-2.743-1.162a8.114,8.114,0,0,1-1.565-.839,6.882,6.882,0,0,1-1.355-1.21,5.457,5.457,0,0,1-.952-1.613,5.735,5.735,0,0,1-.355-2.081,5.566,5.566,0,0,1,.548-2.436,6.047,6.047,0,0,1,1.548-2,7.394,7.394,0,0,1,2.371-1.339,9.008,9.008,0,0,1,3.016-.484,9.785,9.785,0,0,1,3.63.71,9.2,9.2,0,0,1,3.145,2.065l-2.42,3a9.189,9.189,0,0,0-2.065-1.242,5.835,5.835,0,0,0-2.291-.436,3.385,3.385,0,0,0-1.951.5,1.608,1.608,0,0,0-.726,1.4,1.379,1.379,0,0,0,.242.823,2.359,2.359,0,0,0,.678.613,6.863,6.863,0,0,0,1.016.516q.581.242,1.258.533l2.71,1.1a7.4,7.4,0,0,1,3.049,2.129,5.465,5.465,0,0,1,1.113,3.581,5.967,5.967,0,0,1-2.081,4.565,7.712,7.712,0,0,1-2.5,1.419A9.9,9.9,0,0,1,640.314,563.968Z" transform="translate(-597.665 -542.16)" fill="#fff"/>
      <path id="Path_4166" data-name="Path 4166" d="M694.789,564.509V543.475h4.742v21.034Z" transform="translate(-641.591 -543.088)" fill="#fff"/>
      <path id="Path_4167" data-name="Path 4167" d="M731.382,563.968a11.644,11.644,0,0,1-4.049-.694,9.124,9.124,0,0,1-3.274-2.049,9.451,9.451,0,0,1-2.178-3.371,14.009,14.009,0,0,1,.016-9.323,10.142,10.142,0,0,1,2.21-3.468,9.459,9.459,0,0,1,3.274-2.162,10.674,10.674,0,0,1,3.968-.742,8.577,8.577,0,0,1,3.936.839,10.068,10.068,0,0,1,2.678,1.9l-2.484,3.033a9.111,9.111,0,0,0-1.71-1.194,4.746,4.746,0,0,0-2.258-.484,5.3,5.3,0,0,0-2.242.468,5.076,5.076,0,0,0-1.758,1.339,6.116,6.116,0,0,0-1.145,2.129,9.277,9.277,0,0,0-.4,2.839,7.759,7.759,0,0,0,1.468,5.049,5.4,5.4,0,0,0,4.436,1.79,4.915,4.915,0,0,0,1.258-.161,2.557,2.557,0,0,0,1-.484v-3.613H730.64v-3.871h7.678v9.678a9.055,9.055,0,0,1-2.9,1.807A10.526,10.526,0,0,1,731.382,563.968Z" transform="translate(-660.151 -542.16)" fill="#fff"/>
      <path id="Path_4168" data-name="Path 4168" d="M791.121,564.509V543.475h4.872l5.484,10.453,2.064,4.646h.129q-.162-1.677-.371-3.743a38.9,38.9,0,0,1-.21-3.936v-7.42h4.517v21.034h-4.871l-5.485-10.485-2.064-4.581h-.129q.161,1.742.371,3.742a37.229,37.229,0,0,1,.21,3.871v7.452Z" transform="translate(-709.567 -543.088)" fill="#fff"/>
    </g>
    <g id="Group_155" data-name="Group 155" transform="translate(418.069 477.263)">
      <path id="Path_4169" data-name="Path 4169" d="M889.525,563.968a11.646,11.646,0,0,1-4.049-.694,9.129,9.129,0,0,1-3.274-2.049,9.454,9.454,0,0,1-2.177-3.371,14,14,0,0,1,.016-9.323,10.144,10.144,0,0,1,2.21-3.468,9.46,9.46,0,0,1,3.274-2.162,10.676,10.676,0,0,1,3.968-.742,8.578,8.578,0,0,1,3.936.839,10.069,10.069,0,0,1,2.678,1.9l-2.484,3.033a9.107,9.107,0,0,0-1.71-1.194,4.747,4.747,0,0,0-2.258-.484,5.3,5.3,0,0,0-2.242.468,5.076,5.076,0,0,0-1.759,1.339,6.111,6.111,0,0,0-1.145,2.129,9.277,9.277,0,0,0-.4,2.839,7.757,7.757,0,0,0,1.468,5.049,5.4,5.4,0,0,0,4.436,1.79,4.912,4.912,0,0,0,1.258-.161,2.557,2.557,0,0,0,1-.484v-3.613h-3.484v-3.871h7.678v9.678a9.06,9.06,0,0,1-2.9,1.807A10.528,10.528,0,0,1,889.525,563.968Z" transform="translate(-879.234 -542.16)" fill="url(#linear-gradient-8)"/>
      <path id="Path_4170" data-name="Path 4170" d="M942.58,564.509l6.581-21.034h5.71l6.581,21.034H956.42l-1.29-5h-6.42l-1.29,5Zm7.613-10.646-.516,1.935h4.485l-.484-1.935q-.452-1.58-.871-3.355t-.839-3.42h-.129q-.387,1.677-.79,3.436T950.193,553.863Z" transform="translate(-923.933 -543.088)" fill="url(#linear-gradient-8)"/>
      <path id="Path_4171" data-name="Path 4171" d="M1014.475,564.509V543.475h4.742v17.034h8.323v4Z" transform="translate(-974.665 -543.088)" fill="url(#linear-gradient-8)"/>
      <path id="Path_4172" data-name="Path 4172" d="M1061.491,564.509l6.581-21.034h5.71l6.581,21.034h-5.032l-1.291-5h-6.42l-1.29,5Zm7.613-10.646-.516,1.935h4.484l-.484-1.935q-.452-1.58-.871-3.355t-.839-3.42h-.129q-.387,1.677-.79,3.436T1069.1,553.863Z" transform="translate(-1007.841 -543.088)" fill="url(#linear-gradient-8)"/>
      <path id="Path_4173" data-name="Path 4173" d="M1125.494,564.509l5.839-10.807-5.484-10.227h5.291l1.839,3.968q.354.743.71,1.565t.807,1.823h.129q.355-1,.694-1.823t.661-1.565l1.678-3.968h5.065l-5.452,10.453,5.807,10.581h-5.291l-2.1-4.291q-.387-.838-.758-1.661t-.823-1.791h-.129q-.355.968-.71,1.791t-.71,1.661l-1.968,4.291Z" transform="translate(-1053.005 -543.088)" fill="url(#linear-gradient-8)"/>
      <path id="Path_4174" data-name="Path 4174" d="M1191.906,564.509v-7.484l-6.355-13.55h5.1l1.872,4.839q.451,1.194.855,2.307t.855,2.339h.129q.452-1.226.887-2.339t.887-2.307l1.9-4.839H1203l-6.355,13.55v7.484Z" transform="translate(-1095.383 -543.088)" fill="url(#linear-gradient-8)"/>
    </g>
  </g>
</svg>
